<svg width="176" height="41" viewBox="0 0 176 41" fill="none" xmlns="http://www.w3.org/2000/svg">
<path d="M51.764 33.306C48.5907 33.306 46.052 32.6033 44.148 31.198C42.244 29.77 41.1333 27.764 40.816 25.18H45.848C46.0067 26.4947 46.6413 27.5373 47.752 28.308C48.8627 29.056 50.2793 29.43 52.002 29.43C53.4073 29.43 54.484 29.1807 55.232 28.682C56.0027 28.1833 56.388 27.5147 56.388 26.676C56.388 25.8827 56.1613 25.248 55.708 24.772C55.2547 24.2733 54.4727 23.8767 53.362 23.582L48.806 22.324C46.4713 21.6667 44.76 20.7713 43.672 19.638C42.6067 18.482 42.074 17.0427 42.074 15.32C42.074 13.8467 42.448 12.5773 43.196 11.512C43.9667 10.424 45.0433 9.59667 46.426 9.03C47.8087 8.44067 49.4293 8.146 51.288 8.146C54.144 8.146 56.422 8.826 58.122 10.186C59.822 11.5233 60.7853 13.3027 61.012 15.524H55.98C55.7533 14.3227 55.198 13.4387 54.314 12.872C53.4527 12.3053 52.342 12.022 50.982 12.022C49.8033 12.022 48.8627 12.2487 48.16 12.702C47.4573 13.1553 47.106 13.7673 47.106 14.538C47.106 15.1273 47.2987 15.6713 47.684 16.17C48.0693 16.646 48.874 17.054 50.098 17.394L54.654 18.652C57.0567 19.3093 58.7793 20.216 59.822 21.372C60.8873 22.5053 61.42 23.9447 61.42 25.69C61.42 28.138 60.57 30.0193 58.87 31.334C57.17 32.6487 54.8013 33.306 51.764 33.306ZM72.3133 33.34C70.3866 33.34 68.7093 32.966 67.2813 32.218C65.8533 31.4473 64.7426 30.382 63.9493 29.022C63.1786 27.662 62.7933 26.098 62.7933 24.33C62.7933 22.5393 63.1786 20.9753 63.9493 19.638C64.7426 18.278 65.8419 17.224 67.2473 16.476C68.6526 15.7053 70.2846 15.32 72.1433 15.32C73.9339 15.32 75.4866 15.6827 76.8013 16.408C78.1159 17.1333 79.1359 18.142 79.8613 19.434C80.5866 20.726 80.9493 22.2447 80.9493 23.99C80.9493 24.3527 80.9379 24.6927 80.9153 25.01C80.8926 25.3047 80.8586 25.588 80.8133 25.86H65.7853V22.494H76.6993L75.8153 23.106C75.8153 21.7007 75.4753 20.6693 74.7953 20.012C74.1379 19.332 73.2313 18.992 72.0753 18.992C70.7379 18.992 69.6953 19.4453 68.9473 20.352C68.2219 21.2587 67.8593 22.6187 67.8593 24.432C67.8593 26.2 68.2219 27.5147 68.9473 28.376C69.6953 29.2373 70.8059 29.668 72.2793 29.668C73.0953 29.668 73.7979 29.532 74.3873 29.26C74.9766 28.988 75.4186 28.546 75.7133 27.934H80.5073C79.9406 29.6113 78.9659 30.9373 77.5833 31.912C76.2233 32.864 74.4666 33.34 72.3133 33.34ZM83.6767 33V15.66H88.6747V19.74H88.7767V33H83.6767ZM95.7467 33V22.256C95.7467 21.304 95.4974 20.59 94.9987 20.114C94.5227 19.638 93.8201 19.4 92.8907 19.4C92.0974 19.4 91.3834 19.5813 90.7487 19.944C90.1367 20.3067 89.6494 20.8053 89.2867 21.44C88.9467 22.0747 88.7767 22.8227 88.7767 23.684L88.3347 19.502C88.9014 18.2327 89.7287 17.224 90.8167 16.476C91.9274 15.7053 93.2874 15.32 94.8967 15.32C96.8234 15.32 98.2967 15.864 99.3167 16.952C100.337 18.0173 100.847 19.4567 100.847 21.27V33H95.7467ZM112.225 33.374C110.004 33.374 108.349 32.8413 107.261 31.776C106.196 30.688 105.663 29.0447 105.663 26.846V11.784L110.763 9.88V27.016C110.763 27.7867 110.978 28.3647 111.409 28.75C111.84 29.1353 112.508 29.328 113.415 29.328C113.755 29.328 114.072 29.294 114.367 29.226C114.662 29.158 114.956 29.0787 115.251 28.988V32.864C114.956 33.0227 114.537 33.1473 113.993 33.238C113.472 33.3287 112.882 33.374 112.225 33.374ZM102.433 19.536V15.66H115.251V19.536H102.433ZM118.142 33V15.66H123.242V33H118.142ZM117.972 13.348V7.84H123.412V13.348H117.972ZM127.306 33V15.66H132.304V19.74H132.406V33H127.306ZM139.376 33V22.256C139.376 21.304 139.126 20.59 138.628 20.114C138.152 19.638 137.449 19.4 136.52 19.4C135.726 19.4 135.012 19.5813 134.378 19.944C133.766 20.3067 133.278 20.8053 132.916 21.44C132.576 22.0747 132.406 22.8227 132.406 23.684L131.964 19.502C132.53 18.2327 133.358 17.224 134.446 16.476C135.556 15.7053 136.916 15.32 138.526 15.32C140.452 15.32 141.926 15.864 142.946 16.952C143.966 18.0173 144.476 19.4567 144.476 21.27V33H139.376ZM156.516 33.34C154.59 33.34 152.912 32.966 151.484 32.218C150.056 31.4473 148.946 30.382 148.152 29.022C147.382 27.662 146.996 26.098 146.996 24.33C146.996 22.5393 147.382 20.9753 148.152 19.638C148.946 18.278 150.045 17.224 151.45 16.476C152.856 15.7053 154.488 15.32 156.346 15.32C158.137 15.32 159.69 15.6827 161.004 16.408C162.319 17.1333 163.339 18.142 164.064 19.434C164.79 20.726 165.152 22.2447 165.152 23.99C165.152 24.3527 165.141 24.6927 165.118 25.01C165.096 25.3047 165.062 25.588 165.016 25.86H149.988V22.494H160.902L160.018 23.106C160.018 21.7007 159.678 20.6693 158.998 20.012C158.341 19.332 157.434 18.992 156.278 18.992C154.941 18.992 153.898 19.4453 153.15 20.352C152.425 21.2587 152.062 22.6187 152.062 24.432C152.062 26.2 152.425 27.5147 153.15 28.376C153.898 29.2373 155.009 29.668 156.482 29.668C157.298 29.668 158.001 29.532 158.59 29.26C159.18 28.988 159.622 28.546 159.916 27.934H164.71C164.144 29.6113 163.169 30.9373 161.786 31.912C160.426 32.864 158.67 33.34 156.516 33.34ZM167.88 33V8.52H172.98V33H167.88Z" fill="white"/>
<path d="M17 4C12.757 8.24292 6.39479 9.66667 1.41663 9.66667C1.41663 21.8245 8.59629 32.4707 17 38C25.4036 32.4707 32.5833 21.8245 32.5833 9.66667C27.6051 9.66667 21.2429 8.24292 17 4ZM4.37463 12.3498C7.85254 12.0013 12.75 10.9162 17 7.74567V34.5292C11.3333 30.1899 5.30679 22.3402 4.37463 12.3498Z" fill="white"/>
</svg>
